<?xml version="1.0" encoding="utf-8"?>
<!-- Generator: Adobe Illustrator 23.0.2, SVG Export Plug-In . SVG Version: 6.00 Build 0)  -->
<svg version="1.1" id="Layer_1" xmlns="http://www.w3.org/2000/svg" xmlns:xlink="http://www.w3.org/1999/xlink" x="0px" y="0px"
	 viewBox="0 0 1080 192.9" style="enable-background:new 0 0 1080 192.9;" xml:space="preserve">
<style type="text/css">
	.st0{fill:#299751;stroke:#299751;stroke-miterlimit:10;}
	.st1{fill:#FFFFFF;}
	.st2{fill:#299751;}
</style>
<g>
	<g>
		<path class="st0" d="M231.2,60.8h13.4l16.8,52.4l17.4-52.6h10.5l17.4,52.6l16.8-52.4h13l-24.6,71.1h-10.7l-17.4-50.7l-17.4,50.7
			h-10.7L231.2,60.8z"/>
		<path class="st0" d="M331.8,105v-0.2c0-15.2,10.8-27.7,26-27.7c16.9,0,25.5,13.3,25.5,28.7c0,1.1-0.1,2.2-0.2,3.4H344
			c1.3,8.7,7.5,13.5,15.3,13.5c6,0,10.2-2.2,14.4-6.4l7.2,6.4c-5,6.1-12,10-21.8,10C343.7,132.6,331.8,121.4,331.8,105z
			 M371.2,101.1c-0.8-7.9-5.4-14-13.5-14c-7.5,0-12.7,5.8-13.8,14H371.2z"/>
		<path class="st0" d="M403.3,123.2v8.3h-12.2V57.8h12.2V87c3.9-5.5,9.5-10,18.1-10c12.6,0,24.8,10,24.8,27.6v0.2
			c0,17.7-12.1,27.6-24.8,27.6C412.6,132.5,407,128.1,403.3,123.2z M433.8,104.9v-0.2c0-10.3-7-17.1-15.2-17.1
			c-8.3,0-15.5,6.9-15.5,17.1v0.2c0,10.3,7.3,17.1,15.5,17.1C426.9,121.9,433.8,115.4,433.8,104.9z"/>
		<path class="st0" d="M455.5,60.8h26.3c22.2,0,37.5,15.2,37.5,35.1v0.2c0,19.9-15.3,35.3-37.5,35.3h-26.3V60.8z M481.9,120.1
			c14.8,0,24.5-10,24.5-23.8v-0.2c0-13.8-9.7-24-24.5-24H468v48H481.9z"/>
		<path class="st0" d="M525.6,105v-0.2c0-15.2,10.8-27.7,26-27.7c17,0,25.5,13.3,25.5,28.7c0,1.1-0.1,2.2-0.2,3.4h-39.1
			c1.3,8.7,7.5,13.5,15.3,13.5c6,0,10.2-2.2,14.4-6.4l7.2,6.4c-5,6.1-12,10-21.8,10C537.5,132.6,525.6,121.4,525.6,105z M565,101.1
			c-0.8-7.9-5.4-14-13.5-14c-7.5,0-12.7,5.8-13.8,14H565z"/>
		<path class="st0" d="M577.3,78.2h13.1l14.3,39.1l14.4-39.1H632l-21.8,53.7h-11L577.3,78.2z"/>
		<path class="st1" d="M665.9,60.8h8v63.3h39.8v7.4h-47.7V60.8z"/>
		<path class="st1" d="M742.5,125.9c7.2,0,12.2-2.9,16.4-7.4l4.8,4.3c-5.2,5.9-11.6,9.8-21.5,9.8c-14.3,0-26-11-26-27.2
			c0-15.1,10.6-27.2,25-27.2c15.4,0,24.3,12.3,24.3,27.6c0,0.7,0,1.5-0.1,2.7h-41.4C725.2,119.5,733.3,125.9,742.5,125.9z
			 M757.7,102.3c-0.9-9.5-6.4-17.6-16.6-17.6c-9,0-15.8,7.5-17,17.6H757.7z"/>
		<path class="st1" d="M770.3,124.8l3.9-5.5c5.6,4.2,11.9,6.7,18.1,6.7c6.3,0,10.8-3.2,10.8-8.3v-0.2c0-5.2-6.2-7.3-13-9.2
			c-8.2-2.3-17.3-5.1-17.3-14.7v-0.2c0-9,7.5-14.9,17.8-14.9c6.4,0,13.4,2.2,18.8,5.8l-3.5,5.9c-4.8-3.1-10.4-5-15.4-5
			c-6.2,0-10.1,3.2-10.1,7.6v0.2c0,4.9,6.5,6.9,13.4,9c8.1,2.4,16.7,5.5,16.7,14.9v0.2c0,9.9-8.2,15.6-18.6,15.6
			C784.4,132.4,776.2,129.5,770.3,124.8z"/>
		<path class="st1" d="M817,124.8l3.9-5.5c5.6,4.2,11.9,6.7,18.1,6.7c6.3,0,10.8-3.2,10.8-8.3v-0.2c0-5.2-6.2-7.3-13-9.2
			c-8.2-2.3-17.3-5.1-17.3-14.7v-0.2c0-9,7.5-14.9,17.8-14.9c6.4,0,13.4,2.2,18.8,5.8l-3.5,5.9c-4.8-3.1-10.4-5-15.4-5
			c-6.2,0-10.1,3.2-10.1,7.6v0.2c0,4.9,6.5,6.9,13.4,9c8.1,2.4,16.7,5.5,16.7,14.9v0.2c0,9.9-8.2,15.6-18.6,15.6
			C831.2,132.4,822.9,129.5,817,124.8z"/>
		<path class="st1" d="M863.8,105.6v-0.2c0-14.7,11.5-27.2,27.2-27.2c15.6,0,27.1,12.3,27.1,27v0.2c0,14.7-11.6,27.2-27.3,27.2
			C875.2,132.6,863.8,120.3,863.8,105.6z M910.3,105.6v-0.2c0-11.2-8.4-20.4-19.4-20.4c-11.3,0-19.1,9.2-19.1,20.2v0.2
			c0,11.2,8.3,20.3,19.3,20.3C902.4,125.7,910.3,116.6,910.3,105.6z"/>
		<path class="st1" d="M925.7,79.3h7.8v9.1c3.4-5.6,8.9-10.2,17.9-10.2c12.6,0,20,8.5,20,20.9v32.4h-7.8V101
			c0-9.7-5.2-15.7-14.4-15.7c-9,0-15.6,6.6-15.6,16.3v29.9h-7.8V79.3z"/>
		<path class="st1" d="M979,124.8l3.9-5.5c5.6,4.2,11.9,6.7,18.1,6.7c6.3,0,10.8-3.2,10.8-8.3v-0.2c0-5.2-6.2-7.3-13-9.2
			c-8.2-2.3-17.3-5.1-17.3-14.7v-0.2c0-9,7.5-14.9,17.8-14.9c6.4,0,13.4,2.2,18.8,5.8l-3.5,5.9c-4.8-3.1-10.4-5-15.4-5
			c-6.2,0-10.1,3.2-10.1,7.6v0.2c0,4.9,6.5,6.9,13.4,9c8.1,2.4,16.7,5.5,16.7,14.9v0.2c0,9.9-8.2,15.6-18.6,15.6
			C993.1,132.4,984.8,129.5,979,124.8z"/>
		<path class="st1" d="M1029,114v-0.1c0-9.9,8-18.2,18.2-18.2s18.1,8.2,18.1,18.1v0.1c0,9.9-8,18.2-18.2,18.2
			C1037,132,1029,123.8,1029,114z M1063.5,113.9v-0.1c0-9-7-16.3-16.2-16.3c-9.3,0-16.3,7.4-16.3,16.4v0.1c0,9,7,16.3,16.2,16.3
			C1056.4,130.2,1063.5,122.8,1063.5,113.9z M1037.8,113.7v-0.1c0-5.4,4.1-9.8,9.7-9.8c3.6,0,5.7,1.2,7.5,3l-2.4,2.7
			c-1.5-1.3-3.1-2.3-5.1-2.3c-3.4,0-5.9,2.9-5.9,6.4v0.1c0,3.5,2.5,6.4,5.9,6.4c2.3,0,3.7-0.9,5.2-2.4l2.4,2.4
			c-2,2.1-4.2,3.4-7.7,3.4C1041.9,123.4,1037.8,119.1,1037.8,113.7z"/>
	</g>
	<g>
		<g>
			<path class="st1" d="M14.6,109V91.2L101.7,54l-9.6,22.7L33.5,99.9l42,17l-6.9,16.1L14.6,109z"/>
		</g>
		<g>
			<path class="st1" d="M198.7,81v17.8l-87.1,37.1l9.6-22.7L179.9,90l-42-17l6.9-16.1L198.7,81z"/>
		</g>
		<g>
			<path class="st2" d="M123.3,35.9l16.6-0.7L87.7,157L71,157.7L123.3,35.9z"/>
		</g>
	</g>
</g>
</svg>
